<svg width="102" height="60" viewBox="0 0 102 60" fill="none" xmlns="http://www.w3.org/2000/svg">
<path d="M66.4545 16.6841V7.10819C66.4545 4.12954 65.4848 2.00193 61.6061 2.00193C57.7273 2.00193 14.3333 2.00193 5.84848 2.00193C4.23232 2.00193 1 1.74662 1 7.10819C1 11.1932 1 26.6998 1 46.2739C1 49.0397 1.9697 50.7418 5.84848 50.7418H14.3333M30.0909 50.7418H62.2121C63.6263 50.8226 66.4545 50.0421 66.4545 46.2739" stroke="#393939" stroke-width="2"/>
<path d="M74.9394 50.7448H66.4546V7.1084H85.2425L101 30.7448V50.7448H90.697" stroke="#393939" stroke-width="2" stroke-linejoin="round"/>
<circle cx="82.818" cy="50.1385" r="8.09091" stroke="#393939" stroke-width="2"/>
<circle cx="22.212" cy="50.1385" r="8.09091" stroke="#393939" stroke-width="2"/>
<path d="M90.235 15.5933H76.2667C75.4202 15.5933 73.7271 16.0781 73.7271 18.0175C73.7271 19.9569 73.7271 26.5024 73.7271 28.9266C73.7271 29.7347 74.235 31.3508 76.2667 31.3508C78.2985 31.3508 93.198 31.3508 100.394 31.3508" stroke="#393939" stroke-width="2"/>
<path d="M22.8182 31.3508C30.014 31.3508 53.3983 31.3508 55.43 31.3508C57.4618 31.3508 57.9697 29.7347 57.9697 28.9266C57.9697 26.5024 57.9697 19.9569 57.9697 18.0175C57.9697 16.0781 56.2766 15.5933 55.43 15.5933H16.6422C16.0361 15.5933 14.824 16.0781 14.824 18.0175C14.824 19.9569 14.824 22.4619 14.824 25.2902" stroke="#F0047F" stroke-width="2" stroke-linecap="round"/>
<path d="M32.5151 22.8659L36.1515 26.5023L41 20.4417" stroke="#F0047F" stroke-width="2" stroke-linecap="round" stroke-linejoin="round"/>
</svg>
