<svg width="46" height="84" viewBox="0 0 46 84" fill="none" xmlns="http://www.w3.org/2000/svg">
<path d="M45 7.56663V43.3353V77.1233C45 82.4096 41.8889 81.9922 40.3333 81.9922H6.33333C2.06667 81.9922 1 80.1374 1 77.1233V7.56663C1 1.72388 4.55556 2.0021 6.33333 2.0021H39.6667C43.9333 2.0021 45 4.32066 45 7.56663Z" stroke="#393939" stroke-width="2"/>
<path d="M16.7144 8.41919H29.2858" stroke="#393939" stroke-width="2" stroke-linecap="round"/>
<path d="M25.2644 70.711C25.2644 71.932 24.2764 72.9194 23.0607 72.9194C21.8449 72.9194 20.8569 71.932 20.8569 70.711C20.8569 69.49 21.8449 68.5027 23.0607 68.5027C24.2764 68.5027 25.2644 69.49 25.2644 70.711Z" stroke="#393939" stroke-width="2"/>
<path d="M32.9468 37.5575C32.9468 36.6588 32.5211 35.7601 31.8825 35.0861C32.2018 34.1875 32.0953 33.2888 31.6696 32.3902C31.2439 31.6038 30.4989 31.0422 29.6475 30.8175C29.4346 29.9189 28.9025 29.1325 28.1575 28.6832C27.4125 28.2339 26.4546 28.1215 25.6032 28.4585C25.071 27.7845 24.2196 27.3352 23.2617 27.3352C22.4103 27.3352 21.5589 27.7845 20.9203 28.4585C20.2817 28.2339 19.3239 28.3462 18.5789 28.7955C17.8339 29.2449 17.3017 30.0312 17.0889 30.9298C16.2374 31.1545 15.4924 31.7162 15.0667 32.5025C14.641 33.2888 14.5346 34.2998 14.8538 35.0861C14.2153 35.6478 13.7896 36.5465 13.7896 37.5575C13.7896 38.5684 14.2153 39.3548 14.8538 40.0288C14.5346 40.9274 14.641 41.8261 15.0667 42.7247C15.4924 43.5111 16.2374 44.0727 17.0889 44.2974C17.1953 45.1961 17.8339 45.9824 18.5789 46.4317C19.3239 46.881 20.2817 46.9934 21.1332 46.6564C21.6653 47.3304 22.5167 47.7797 23.4746 47.7797C24.4325 47.7797 25.1775 47.3304 25.816 46.6564C26.6675 46.9934 27.5189 46.881 28.3703 46.4317C29.1153 45.9824 29.6475 45.1961 29.8603 44.2974C30.7118 44.0727 31.4568 43.5111 31.8825 42.7247C32.3082 41.9384 32.4146 40.9274 32.0953 40.0288C32.6275 39.3548 32.9468 38.4561 32.9468 37.5575Z" stroke="#F0047F" stroke-width="2" stroke-miterlimit="10" stroke-linejoin="round"/>
<path d="M32.21 43.3352C31.8784 43.5536 31.5469 43.7721 31.2153 43.8813C30.7732 44.8642 30.1101 45.6287 29.2259 46.0655C28.4522 46.5024 27.6785 46.7208 26.7944 46.7208C26.5733 46.7208 26.4628 46.7208 26.2417 46.7208C25.4681 47.2668 24.6944 47.5945 23.6997 47.5945L31.2153 55.0209L31.989 49.4511L37.7362 48.6866L32.21 43.3352Z" stroke="#F0047F" stroke-width="2" stroke-miterlimit="10" stroke-linejoin="round"/>
<path d="M20.4944 46.7208C20.2733 46.7208 20.1628 46.7208 19.9417 46.7208C19.0576 46.7208 18.1734 46.5024 17.5102 46.1747C16.6261 45.6287 15.9629 44.8642 15.5208 43.9905C15.0787 43.7721 14.7472 43.5536 14.4156 43.3352L9 48.7958L14.7472 49.4511L15.5208 55.1301L23.0364 47.7037C22.0417 47.5945 21.1575 47.2668 20.4944 46.7208Z" stroke="#F0047F" stroke-width="2" stroke-miterlimit="10" stroke-linejoin="round"/>
<path d="M18.3237 36.6686L22.3237 40.6686L27.6571 34.002" stroke="#393939" stroke-width="2" stroke-linecap="round" stroke-linejoin="round"/>
</svg>
